<svg xmlns="http://www.w3.org/2000/svg" viewBox="0 0 80 80">
    <defs>
        <style>.cls-1{fill:none;}.cls-2{fill:#ccc;stroke:#4d4d4d;stroke-miterlimit:10;stroke-width:3.2px;}.cls-3,.cls-4{fill:#00979c;}.cls-4{font-size:2.4px;font-family:Arial-BoldMT, Arial;font-weight:700;}</style>
    </defs>
    <title>pluginicon</title>
    <g id="Layer_2">
        <rect class="cls-1" width="80" height="80"/>
        <path class="cls-2" d="M34.44,27.6l0,9.36H29.24c-4.26,0-7,4.85-7,8.59V62.21h8.41v12.3H36l.17-12.3h6.38v12.3h5.33l.35-12.3h7.23V45.15c0-6.11-4-8.26-8.26-8.26H42.89l.14-9.2Z"/>
        <path class="cls-3" d="M38.83,15.58s6.34-10,15.92-10c10,0,16.15,7.85,16.15,14.44C70.9,29,64.39,36.2,55.08,36.2c-11.17,0-16.25-10.51-16.25-10.51S33.75,36.2,22.57,36.2c-9.44,0-16.18-7-15.82-16.16C7,13.46,12.86,5.6,22.9,5.6,32.49,5.61,38.83,15.58,38.83,15.58ZM65.7,20.14c0-4.22-3.9-9.24-11-9.24S42,20.59,42,20.59,46.83,30.9,55.08,30.9A10.43,10.43,0,0,0,65.7,20.14Zm-30.07.4s-5-9.64-12.73-9.64c-7,0-10.95,5-10.95,9.24,0,5.8,4,10.76,10.62,10.76C31.13,30.9,35.63,20.54,35.63,20.54Z"/>
        <rect class="cls-3" x="17.92" y="18.75" width="9.58" height="3.28"/>
        <polygon class="cls-3" points="59.06 18.75 56.23 18.75 56.23 15.82 52.95 15.82 52.95 18.75 50.11 18.75 50.11 22.03 52.95 22.03 52.95 24.87 56.23 24.87 56.23 22.03 59.06 22.03 59.06 18.75"/>
        <text class="cls-4" transform="translate(66.96 8.37)">TM</text>
    </g>
</svg>
